REM DIRINDEX 1\2,1\3,1\4
REM DIRNAME cjc151,folder01,folder02,folder03
TITLE ""
FILE "110 110_TOEFL_3900.mp3" MP3
  TRACK 01 AUDIO
    TITLE "2:cjc151_4797"
    INDEX 01 00:00:00
  TRACK 02 AUDIO
    TITLE "0:"
    INDEX 01 00:01:24
  TRACK 03 AUDIO
    TITLE "3:cjc151_4798"
    INDEX 01 00:03:04
  TRACK 04 AUDIO
    TITLE "0:"
    INDEX 01 00:07:29
  TRACK 05 AUDIO
    TITLE "2:cjc151_4799"
    INDEX 01 00:09:12
  TRACK 06 AUDIO
    TITLE "0:"
    INDEX 01 00:10:21
  TRACK 07 AUDIO
    TITLE "3:cjc151_4800"
    INDEX 01 00:12:11
  TRACK 08 AUDIO
    TITLE "0:"
    INDEX 01 00:15:66
  TRACK 09 AUDIO
    TITLE "2:cjc151_4801"
    INDEX 01 00:17:53
  TRACK 10 AUDIO
    TITLE "0:"
    INDEX 01 00:18:74
  TRACK 11 AUDIO
    TITLE "3:cjc151_4802"
    INDEX 01 00:20:51
  TRACK 12 AUDIO
    TITLE "0:"
    INDEX 01 00:23:61
  TRACK 13 AUDIO
    TITLE "2:cjc151_4803"
    INDEX 01 00:25:41
  TRACK 14 AUDIO
    TITLE "0:"
    INDEX 01 00:27:06
  TRACK 15 AUDIO
    TITLE "3:cjc151_4804"
    INDEX 01 00:28:66
  TRACK 16 AUDIO
    TITLE "0:"
    INDEX 01 00:33:15
  TRACK 17 AUDIO
    TITLE "2:cjc151_4805"
    INDEX 01 00:34:71
  TRACK 18 AUDIO
    TITLE "0:"
    INDEX 01 00:36:15
  TRACK 19 AUDIO
    TITLE "3:cjc151_4806"
    INDEX 01 00:37:73
  TRACK 20 AUDIO
    TITLE "0:"
    INDEX 01 00:41:65
  TRACK 21 AUDIO
    TITLE "2:cjc151_4807"
    INDEX 01 00:43:44
  TRACK 22 AUDIO
    TITLE "0:"
    INDEX 01 00:44:34
  TRACK 23 AUDIO
    TITLE "3:cjc151_4808"
    INDEX 01 00:46:27
  TRACK 24 AUDIO
    TITLE "0:"
    INDEX 01 00:50:11
  TRACK 25 AUDIO
    TITLE "2:cjc151_4809"
    INDEX 01 00:51:65
  TRACK 26 AUDIO
    TITLE "0:"
    INDEX 01 00:53:21
  TRACK 27 AUDIO
    TITLE "3:cjc151_4810"
    INDEX 01 00:55:03
  TRACK 28 AUDIO
    TITLE "0:"
    INDEX 01 00:58:44
  TRACK 29 AUDIO
    TITLE "2:cjc151_4811"
    INDEX 01 01:00:27
  TRACK 30 AUDIO
    TITLE "0:"
    INDEX 01 01:01:31
  TRACK 31 AUDIO
    TITLE "3:cjc151_4812"
    INDEX 01 01:03:10
  TRACK 32 AUDIO
    TITLE "0:"
    INDEX 01 01:06:45
  TRACK 33 AUDIO
    TITLE "2:cjc151_4813"
    INDEX 01 01:08:23
  TRACK 34 AUDIO
    TITLE "0:"
    INDEX 01 01:09:59
  TRACK 35 AUDIO
    TITLE "3:cjc151_4814"
    INDEX 01 01:11:39
  TRACK 36 AUDIO
    TITLE "0:"
    INDEX 01 01:15:74
  TRACK 37 AUDIO
    TITLE "2:cjc151_4815"
    INDEX 01 01:17:53
  TRACK 38 AUDIO
    TITLE "0:"
    INDEX 01 01:19:17
  TRACK 39 AUDIO
    TITLE "3:cjc151_4816"
    INDEX 01 01:20:71
  TRACK 40 AUDIO
    TITLE "0:"
    INDEX 01 01:25:15
  TRACK 41 AUDIO
    TITLE "2:cjc151_4817"
    INDEX 01 01:26:68
  TRACK 42 AUDIO
    TITLE "0:"
    INDEX 01 01:28:25
  TRACK 43 AUDIO
    TITLE "3:cjc151_4818"
    INDEX 01 01:30:13
  TRACK 44 AUDIO
    TITLE "0:"
    INDEX 01 01:34:50
  TRACK 45 AUDIO
    TITLE "2:cjc151_4819"
    INDEX 01 01:36:31
  TRACK 46 AUDIO
    TITLE "0:"
    INDEX 01 01:37:71
  TRACK 47 AUDIO
    TITLE "3:cjc151_4820"
    INDEX 01 01:39:51
  TRACK 48 AUDIO
    TITLE "0:"
    INDEX 01 01:43:03
  TRACK 49 AUDIO
    TITLE "2:cjc151_4821"
    INDEX 01 01:44:58
  TRACK 50 AUDIO
    TITLE "0:"
    INDEX 01 01:46:16
  TRACK 51 AUDIO
    TITLE "3:cjc151_4822"
    INDEX 01 01:47:68
  TRACK 52 AUDIO
    TITLE "0:"
    INDEX 01 01:51:38
  TRACK 53 AUDIO
    TITLE "2:cjc151_4823"
    INDEX 01 01:53:20
  TRACK 54 AUDIO
    TITLE "0:"
    INDEX 01 01:54:56
  TRACK 55 AUDIO
    TITLE "3:cjc151_4824"
    INDEX 01 01:56:45
  TRACK 56 AUDIO
    TITLE "0:"
    INDEX 01 02:00:22
  TRACK 57 AUDIO
    TITLE "2:cjc151_4825"
    INDEX 01 02:01:74
  TRACK 58 AUDIO
    TITLE "0:"
    INDEX 01 02:03:59
  TRACK 59 AUDIO
    TITLE "3:cjc151_4826"
    INDEX 01 02:05:38
  TRACK 60 AUDIO
    TITLE "0:"
    INDEX 01 02:09:22
  TRACK 61 AUDIO
    TITLE "2:cjc151_4827"
    INDEX 01 02:11:04
  TRACK 62 AUDIO
    TITLE "0:"
    INDEX 01 02:12:62
  TRACK 63 AUDIO
    TITLE "3:cjc151_4828"
    INDEX 01 02:14:41
  TRACK 64 AUDIO
    TITLE "0:"
    INDEX 01 02:18:33
  TRACK 65 AUDIO
    TITLE "2:cjc151_4829"
    INDEX 01 02:20:11
  TRACK 66 AUDIO
    TITLE "0:"
    INDEX 01 02:21:30
  TRACK 67 AUDIO
    TITLE "3:cjc151_4830"
    INDEX 01 02:23:05
  TRACK 68 AUDIO
    TITLE "0:"
    INDEX 01 02:26:74
  TRACK 69 AUDIO
    TITLE "2:cjc151_4831"
    INDEX 01 02:28:55
  TRACK 70 AUDIO
    TITLE "0:"
    INDEX 01 02:30:50
  TRACK 71 AUDIO
    TITLE "3:cjc151_4832"
    INDEX 01 02:32:27
  TRACK 72 AUDIO
    TITLE "0:"
    INDEX 01 02:36:21
  TRACK 73 AUDIO
    TITLE "2:cjc151_4833"
    INDEX 01 02:38:03
  TRACK 74 AUDIO
    TITLE "0:"
    INDEX 01 02:39:49
  TRACK 75 AUDIO
    TITLE "3:cjc151_4834"
    INDEX 01 02:41:28
  TRACK 76 AUDIO
    TITLE "0:"
    INDEX 01 02:45:38
  TRACK 77 AUDIO
    TITLE "2:cjc151_4835"
    INDEX 01 02:47:25
  TRACK 78 AUDIO
    TITLE "0:"
    INDEX 01 02:48:38
  TRACK 79 AUDIO
    TITLE "3:cjc151_4836"
    INDEX 01 02:50:18
  TRACK 80 AUDIO
    TITLE "0:"
    INDEX 01 02:54:74
  TRACK 81 AUDIO
    TITLE "2:cjc151_4837"
    INDEX 01 02:56:51
  TRACK 82 AUDIO
    TITLE "0:"
    INDEX 01 02:57:69
  TRACK 83 AUDIO
    TITLE "3:cjc151_4838"
    INDEX 01 02:59:46
  TRACK 84 AUDIO
    TITLE "0:"
    INDEX 01 03:03:69
  TRACK 85 AUDIO
    TITLE "2:cjc151_4839"
    INDEX 01 03:05:48
  TRACK 86 AUDIO
    TITLE "0:"
    INDEX 01 03:06:67
  TRACK 87 AUDIO
    TITLE "3:cjc151_4840"
    INDEX 01 03:08:47
  TRACK 88 AUDIO
    TITLE "0:"
    INDEX 01 03:12:74
